# xmcd
#
# Track frame offsets: 
#        150
#        22250
#        46317
#        66625
#        88222
#        105310
#        123120
#        142940
#        167582
#        188502
#        208870
#
# Disc length: 3009 seconds
#
# Revision: 7
# Processed by: cddbd v1.5.2PL0 Copyright (c) Steve Scherf et al.
# Submitted via: ExactAudioCopy v1.0b3
#
DISCID=970bbf0b
DTITLE=it - B@U
DYEAR=1999
DGENRE=Blues
TTITLE0=B@U
TTITLE1=不詳標題
TTITLE2=Xvd
TTITLE3=A
TTITLE4=jkH
TTITLE5=SY
TTITLE6=±wCJ
TTITLE7=不詳標題
TTITLE8=A{b
TTITLE9=ڳQR
TTITLE10=Xvd(nu)
EXTD=YEAR: 1999
EXTT0=
EXTT1=
EXTT2=
EXTT3=
EXTT4=
EXTT5=
EXTT6=
EXTT7=
EXTT8=
EXTT9=
EXTT10=
PLAYORDER=
